<svg xmlns="http://www.w3.org/2000/svg" xmlns:xlink="http://www.w3.org/1999/xlink" width="339" height="51" viewBox="0 0 339 51">
  <defs>
    <clipPath id="clip-path">
      <rect id="長方形_1" data-name="長方形 1" width="339" height="51" fill="none"/>
    </clipPath>
  </defs>
  <g id="グループ_1" data-name="グループ 1" clip-path="url(#clip-path)">
    <path id="パス_1" data-name="パス 1" d="M21.938,48.086a1.131,1.131,0,0,1-.812-.662v-.552l.677-1.325a1.412,1.412,0,0,1-1.015-.387l-.27-.662a41.884,41.884,0,0,0,3.959-8.058,27.553,27.553,0,0,0,1.658-8.611,13.627,13.627,0,0,0-1.083-2.484,11.035,11.035,0,0,0-2.571-1.1,17.381,17.381,0,0,0-2.843-.552Q16.929,29.1,14.765,34.757T10.907,46.1a1.772,1.772,0,0,1-1.083.221l-.609-.331a.918.918,0,0,1-.27-.828l.27-1.049-.474-.662a1.436,1.436,0,0,1-1.15-.387L7.32,42.4l.068-.387h-.2l-.339.11-.474,1.1a1.7,1.7,0,0,1-1.15.276l-.813-.387a2.873,2.873,0,0,1-.542,1.435,1.77,1.77,0,0,1-1.082.22l-.678-.386a1.2,1.2,0,0,1-.2-.883l.068-.387a1.49,1.49,0,0,1-1.286-.331.845.845,0,0,1-.27-.772A81.11,81.11,0,0,1,8.132,25.181H8q-1.355.442-2.707.966a22.123,22.123,0,0,0-2.572,1.187l-.473.442-.813.11-.677-.331a2.214,2.214,0,0,1-.609-1.546l.406-.662-.271-.11a.921.921,0,0,1-.27-.828L.62,23.69A37.76,37.76,0,0,1,6,21.537q2.808-.881,5.651-1.49,1.422-1.93,4.128-5.685A39.41,39.41,0,0,1,20.314,8.9h.678l.744.276.609-.055.677.387.2.607.406.111.2-.276a1.519,1.519,0,0,1,1.015-.22l1.76.772.27.718a63.594,63.594,0,0,0-4.873,8.058,23.336,23.336,0,0,1,5.888,1.077,14.855,14.855,0,0,1,5.075,2.787A10.925,10.925,0,0,1,35.3,26.174a10.029,10.029,0,0,1,1.049,3.477V31.97A48.075,48.075,0,0,1,35,38.151a39.653,39.653,0,0,1-2.3,6.016,2.288,2.288,0,0,1-1.218.331,1.236,1.236,0,0,1-.609.5l-.744.055-.745-.331-.744,1.435a1.7,1.7,0,0,1-1.151.276l-.405-.11-.406.5a1.6,1.6,0,0,1-.948.165l-.541-.165-.542.827-.88.221-.609-.111a1.4,1.4,0,0,1-1.218.331m25.379-9.438-.744-.331q-1.693-5.133-3.35-10.349t-3.215-10.4a1.148,1.148,0,0,1,.879-.717h.542l.745.276.744-.165.879.276a1.96,1.96,0,0,1,.948-.221l.609-.607.609-.11a1.5,1.5,0,0,1,1.083.552,47.351,47.351,0,0,1,5.718,9.328,42.192,42.192,0,0,1,3.215,10.045l-.27.5a1.553,1.553,0,0,1-1.015.331l-.812-.387-.2-.387L53.069,36a1.634,1.634,0,0,1-1.286.386l-.677-.276v.11l.068.552-.405.5a1.506,1.506,0,0,1-1.015.221l-.542-.221-.27-.165a3.358,3.358,0,0,1-.745,1.325Z" transform="translate(0 -1.991)" fill="#fff"/>
    <path id="パス_2" data-name="パス 2" d="M87.748,48.883q-3.045-.552-6.158-1.159A16.7,16.7,0,0,1,75.9,45.516a1.255,1.255,0,0,1-.405-1.1l.068-.22-.2-.11a1.709,1.709,0,0,1-.744-1.27l.474-.607.406-.165v-.166a1.23,1.23,0,0,1-.339-1.159,1.662,1.662,0,0,1,.677-1.325q1.422-.881,2.843-1.821t2.843-1.932v-.111a2.879,2.879,0,0,1,1.556-.552l.2.055.677-.276a.835.835,0,0,1,.473-.938,1.519,1.519,0,0,1,1.015-.22q2.5.717,4.974,1.324a29.2,29.2,0,0,1,4.838,1.656,15.622,15.622,0,0,0,.846-2.567,11.93,11.93,0,0,0,.3-2.732,11.056,11.056,0,0,0-.3-1.932,6.591,6.591,0,0,0-.778-1.822,6.751,6.751,0,0,0-2.537-.634Q91.4,26.8,89.981,26.86a42.07,42.07,0,0,0-5.482.8,32.534,32.534,0,0,0-5.211,1.573l-.542.387-1.015.22a2.7,2.7,0,0,1-.812,1.545,1.757,1.757,0,0,1-1.015.165l-.27-.055a2.144,2.144,0,0,1-.542,1.6,1.381,1.381,0,0,1-.948.22l-.677-.331a1.321,1.321,0,0,1-.27-1.159L73.4,31a4.129,4.129,0,0,0-1.218-.276,1.535,1.535,0,0,1-1.218.387l-.542-.221-.2-.22h-.27l-.609.11-.745-.331a1.432,1.432,0,0,1-.338-1.1l-.677-.331a.917.917,0,0,1-.271-.827,34.048,34.048,0,0,1,5.448-8.528q3.416-3.946,6.733-7.976h-.474q-1.557.166-3.146.3t-3.215.248H69.136a6.327,6.327,0,0,0-1.895-.276,5.324,5.324,0,0,1-1.895-.331,1.107,1.107,0,0,1-.339-.828l.474-.827.744-.221v-.11l-.068-.276.406-.608.406-.22.068-1.159a1,1,0,0,1-.406-1.049l.339-.441a6.221,6.221,0,0,1,2.369-.221l1.962.11h5.347q2.5-.054,4.873-.3t4.805-.579l.541.165a2.7,2.7,0,0,1,1.76-.607l.542.165a2.548,2.548,0,0,1,1.76-.276L91.2,4.4a1.725,1.725,0,0,1,1.556-.553l.609.331.271.718-.2.5a1.418,1.418,0,0,1,1.015.386,1.208,1.208,0,0,1,.2.883,78.133,78.133,0,0,0-6.835,7.866,70.768,70.768,0,0,0-5.549,8.527H82.6a34.825,34.825,0,0,1,4.1-.745q2.063-.248,4.162-.414h3.384a21.312,21.312,0,0,1,4.906.883,12.42,12.42,0,0,1,4.23,2.263,9,9,0,0,1,2.707,3.919,31.9,31.9,0,0,1,1.151,4.416v2.318a14.691,14.691,0,0,1-1.32,4.554,22.035,22.035,0,0,1-2.6,4.222l-.88.22-.744-.22a1.736,1.736,0,0,1-.88.827l-.677.055-.542-.22-.27-.442h-.135l-1.963,1.6a4.662,4.662,0,0,1-1.759.442l-.271-.055-1.083.828-.473.055-.678-.221v-.11h-.135l-.338-.5a5.251,5.251,0,0,0-1.692-.276l-.271.441-.541.221a1.687,1.687,0,0,1-.88,1.6,3.247,3.247,0,0,1-1.353.165m2.5-4.691v-.11l1.827-2.318h-.135l-.542.11q-1.084-.607-2.2-1.187T87,39.444a5.861,5.861,0,0,0-1.422-.938q-.745.717-1.59,1.434a7.989,7.989,0,0,0-1.388,1.49,32.184,32.184,0,0,0,3.723,1.628,29.99,29.99,0,0,0,3.925,1.132" transform="translate(-3.141 -0.857)" fill="#fff"/>
    <path id="パス_3" data-name="パス 3" d="M128.548,48.1q-2.572-.331-5.008-.8a9.08,9.08,0,0,1-4.331-2.125,7.836,7.836,0,0,1-2.03-3.256,11.366,11.366,0,0,1-.474-3.754,33.13,33.13,0,0,1,3.485-11.4,60.952,60.952,0,0,1,6.8-10.459,21.368,21.368,0,0,1-4.535-.8,11.071,11.071,0,0,1-3.925-2.07,7.281,7.281,0,0,1-.981-1.462,7.507,7.507,0,0,1-.576-1.573l.474-.607a3.066,3.066,0,0,0,1.015-.883.884.884,0,0,1,.338-.718,3.448,3.448,0,0,1,1.489-.442,62.9,62.9,0,0,0,7.072,1.49,53.8,53.8,0,0,0,7.343.608,3.9,3.9,0,0,1,1.488-.276l.609.331a1.188,1.188,0,0,1,.27,1.1l-.405.718a.856.856,0,0,1,.27.772l-.542.662-1.151,1.049a1.344,1.344,0,0,1,.745.22.936.936,0,0,1,.338.994,1.129,1.129,0,0,1-.812.662l-2.436.331a43.649,43.649,0,0,0-5.753,9.411,27.629,27.629,0,0,0-2.436,10.294,11.085,11.085,0,0,0,.576,3.146,5.861,5.861,0,0,0,1.928,2.65l.406.055a35.894,35.894,0,0,0,8.764-2.4,66.326,66.326,0,0,0,8.02-4v-.111q1.893-1.49,3.587-3.063t3.316-3.174l.813-.055a1.393,1.393,0,0,1,.812.607l.068.442a10.364,10.364,0,0,1-1.557,1.932l.678.276a1.157,1.157,0,0,1,.27.938l-.135.331.542.5V34.8l-.677.883a.864.864,0,0,1,.338.828,4.029,4.029,0,0,1-.981,1.214q-.645.553-1.32,1.1l-.338.331a1.452,1.452,0,0,1,.947.331.925.925,0,0,1,.271.827l-.339.5A61.172,61.172,0,0,1,140.392,46a32.018,32.018,0,0,1-11.844,2.1m31.334-8.886a1.889,1.889,0,0,1-.948-.5,20.877,20.877,0,0,1-4.7-7.038,23.4,23.4,0,0,1-1.658-7.92V21.219q.134-.994.2-2.015a3.448,3.448,0,0,1,.677-1.849,3.209,3.209,0,0,1,1.218-.221,2.037,2.037,0,0,1,.678-1.49,2.09,2.09,0,0,1,1.082-.165l.609.387v.11l1.015.11a1.444,1.444,0,0,1,1.151-.386l.744.386a31.113,31.113,0,0,0,3.012,9.245,55.521,55.521,0,0,0,5.312,8.528,1.13,1.13,0,0,1-.744.607l-.609.056a5.77,5.77,0,0,1-2.166-1.1v.166l.744.662.068.552-.338.5-.948.276-1.014-.331V35.4a.839.839,0,0,1,.135.663,1.317,1.317,0,0,1-.744.662l-.609.055-.271-.055v.387a.926.926,0,0,1,.271.828l-.339.5-.744.331-.406.331Zm6.565-19.153-.542-.22-.677-.773a1.112,1.112,0,0,1-.88-.386l-.338-.5a1.9,1.9,0,0,1-.948-.5,9.084,9.084,0,0,1-1.455-2.953,10.526,10.526,0,0,1-.372-3.284,1.585,1.585,0,0,1,.542-1.215l.542-.276.474-.828a1.77,1.77,0,0,1,1.015-.276l.609.22v.11a11.859,11.859,0,0,1,2.031.828l.135.276h.135l.339-.056.744.331a11.352,11.352,0,0,0,1.794,3.587,24.311,24.311,0,0,1,2.132,3.477l-.406.553-.744.22-.339.552a1.505,1.505,0,0,1-1.015.221l-.27-.056-.27.331q-1.085.332-2.234.607m7.986-2.649a2.045,2.045,0,0,1-1.421-.552,18.507,18.507,0,0,1-2.335-3.7,13.349,13.349,0,0,1-1.184-4.084l.406-.5.879-.22.2.055.474-.718a6.992,6.992,0,0,1,1.827-.22l.744.552a11.274,11.274,0,0,0,1.59,1.767q.914.828,1.726,1.711h.135q.812.884,1.725,1.711a4.315,4.315,0,0,1,1.252,1.876l-.271.5a1.55,1.55,0,0,1-1.015.331l-.88-.331-.405.883a5.317,5.317,0,0,1-2.031.387l-.744.552Z" transform="translate(-5.638 -1.673)" fill="#fff"/>
    <path id="パス_4" data-name="パス 4" d="M199.572,53.378a.563.563,0,0,1-.372-.3l-.034-.248a27.054,27.054,0,0,0,2.538-3.1,8.8,8.8,0,0,0,1.488-3.491v-1.1a4.888,4.888,0,0,0-1.725-3.064,6.74,6.74,0,0,0-2.656-1.269,10.864,10.864,0,0,0-3.1-.276,21.651,21.651,0,0,0-3.08.442,16.743,16.743,0,0,0-2.91.91,13.752,13.752,0,0,0-2.25,2.925,6.375,6.375,0,0,0-.863,3.339,3.307,3.307,0,0,0,.406,1.132h.068a25.785,25.785,0,0,0,2.317-1.228q1.133-.675,2.183-1.421v-.055l.879-.718h.068q.778-.745,1.507-1.531a15.134,15.134,0,0,0,1.3-1.614.978.978,0,0,1,.44-.165l.507-.745a8.658,8.658,0,0,1,.948-.221l.405.165a.516.516,0,0,1,.136.5l-.034.193.406.387.033.248-.3.855.44.359.373.165.135.387a21.754,21.754,0,0,1-1.844,2.746q-1.034,1.311-2.115,2.525a32.434,32.434,0,0,1-4.044,2.056,10.98,10.98,0,0,1-4.585.841.863.863,0,0,1-.474-.193l-.033-.082a5.932,5.932,0,0,1-2.436-.5,11.237,11.237,0,0,1-2.064-1.187,2.627,2.627,0,0,1-.728-1.173,3.775,3.775,0,0,1-.118-1.394,6.824,6.824,0,0,1,1.083-2.677,20.812,20.812,0,0,1,1.895-2.429q1.082-.8,2.2-1.559a13.026,13.026,0,0,1,2.4-1.283,33.763,33.763,0,0,1,5.668-1.794,26.357,26.357,0,0,1,6.006-.635,16.679,16.679,0,0,1,3.7.525,9.4,9.4,0,0,1,3.266,1.545v.055l.135.055.033.083h.069a6.29,6.29,0,0,1,1.59,2.207,5.834,5.834,0,0,1,.44,2.567,13.587,13.587,0,0,1-.237,1.67,5.644,5.644,0,0,1-.576,1.559.861.861,0,0,1-.608.11l-.1-.027a16.024,16.024,0,0,1-.694,1.517,9.314,9.314,0,0,1-.931,1.435.79.79,0,0,1-.542.138l-.3-.083a3.185,3.185,0,0,0-.677.47l-.372.027-.1-.027a2.9,2.9,0,0,1-.744.745l-.3.027-.1-.027-.405.359a2.221,2.221,0,0,1-.778.138.694.694,0,0,1-.406-.3l-.033-.248.068-.192h-.034a4.728,4.728,0,0,1-1.049.966Z" transform="translate(-8.714 -8.525)" fill="#fff"/>
    <path id="パス_5" data-name="パス 5" d="M229.854,18.607a53.589,53.589,0,0,0-7.309-1.159,51.439,51.439,0,0,1-7.241-1.16,3.4,3.4,0,0,1-.338-1.049,1,1,0,0,1-.542-.994l.338-.5.406-.165v-.11a1.451,1.451,0,0,1-.948-.331,1.061,1.061,0,0,1-.27-.883,1.132,1.132,0,0,1,.812-.662h1.422q3.991.387,7.986.717a78.548,78.548,0,0,1,7.851,1.049.951.951,0,0,1,.2.772l-.406.5q-.677.165-.473.883a.884.884,0,0,1,.473.994A2.611,2.611,0,0,1,231,18.387a1.509,1.509,0,0,1-1.151.22M216.725,45.874l-.473-.22-.541-.938a1.735,1.735,0,0,1-1.353-.442.936.936,0,0,1-.2-.773,1.132,1.132,0,0,1,.813-.662v-.11a1.138,1.138,0,0,1-.271-.938l.744-.662a.985.985,0,0,1,.339-.883,3.316,3.316,0,0,1,1.083-.387,1.153,1.153,0,0,1,.677-.552q3.586-.607,7.106-1.325l7.038-1.435.744.387a2.961,2.961,0,0,1,.948.773l.068.5-.406.552-.405.331.068.331-.474.607a.237.237,0,0,0-.2.331l.947.5.271.718-.339.552q-4.06.884-8.087,1.821t-8.087,1.932m45.141,5.63-.609-.331a1.063,1.063,0,0,1-.271-.883l.069-.165h-.271l-.677.055-.609-.331a1.41,1.41,0,0,1-.27-1.214l.2-2.374q-2.574-.441-5.144-.938t-5.075-1.049a.833.833,0,0,1-.406.828,1.508,1.508,0,0,1-1.015.22l-.609-.331a.915.915,0,0,1-.271-.827l.068-.442a8.143,8.143,0,0,1-2.369-.662l-.27-.331-2.369-.387-.812.165-.339-.055a1.494,1.494,0,0,1-.405,1.049,1.51,1.51,0,0,1-1.151.221L238.314,43v-.11h-.2l-.744.11-.61-.276-.27-.442h-.135a1.338,1.338,0,0,1-1.151.387l-.677-.331a1.4,1.4,0,0,1-.271-1.049q.338-2.1.711-4.194t.914-4.2h-.609l-.879.11-.678-.276a1.108,1.108,0,0,1-.338-.828h-.542a2.072,2.072,0,0,1-1.083.165,1.125,1.125,0,0,1-.744-.607l-.068-.331.406-.662q.608-.275,1.218-.5l.068-.165-.813-.221a2.541,2.541,0,0,1-1.082.111l-1.083-.166-.744.552h-.813q-3.045-.44-6.124-1.1a61.579,61.579,0,0,1-5.99-1.6,2,2,0,0,1-.405-1.215l.405-.5.2-.055v-.276l-.271-.607a1.531,1.531,0,0,1-1.218-.387,1.028,1.028,0,0,1-.2-.828,1.129,1.129,0,0,1,.812-.662h.744q3.586.387,7.106,1.021t6.971,1.3a1.076,1.076,0,0,1,.27.883l-.135.387a1.134,1.134,0,0,1,.744.607v.5l-.068.276a4.982,4.982,0,0,1,1.286.276l.744-.165h4.2l.2-.055q.674-2.1,1.387-4.2a18.981,18.981,0,0,1,1.929-4.029l.812-.22.542.11a11.265,11.265,0,0,1,1.083-2.318,6.029,6.029,0,0,0,1.658-.69,2.946,2.946,0,0,1,1.862-.359l.609.331c.044.22.2.313.474.276l.405-.055.744.387a1.7,1.7,0,0,1,.271,1.159h.406q4.194-.219,8.358-.414t8.358-.359a6.157,6.157,0,0,1,.677-1.767,1.933,1.933,0,0,1,1.151-.22l.744.552v.22a1.56,1.56,0,0,1,1.151.331l.135.276.745.386.2.5h.135l.813-.22.744.331a.924.924,0,0,1,.27.827l-.2.828h.135l.609-.055.813.387.744-.166.744.387a1.039,1.039,0,0,1,.2.828,3.178,3.178,0,0,0-.473,1.049l.068.552a26.687,26.687,0,0,0-1.422,3.2q-.608,1.656-1.151,3.256,1.151.112,2.3.138a5.234,5.234,0,0,1,2.1.469,1.042,1.042,0,0,1,.2.828l-.2.442.947.772.068.718-.135.387.88.276a1.06,1.06,0,0,1,.338.938l-.406.5-.812.221-.744-.111v.111l.068.607-.27.387a1.35,1.35,0,0,1-1.015.276l-5.144-.772q-.405,1.436-.744,2.87t-.542,2.925a18.6,18.6,0,0,1,3.249.608l.338.607a1.118,1.118,0,0,1,.88.387,3.107,3.107,0,0,1,.27,1.269l-.068.331a.934.934,0,0,1,.339.994,1.131,1.131,0,0,1-.745.607h-.2v.11l.27.663-.473.662a1.771,1.771,0,0,1-1.015.165l-2.1-.387-.542.5-.677.111-1.083-.111a1.678,1.678,0,0,1-.339,1.049l-.27.165a5.337,5.337,0,0,1-.542,2.374,1.391,1.391,0,0,1-.948.22l-.879-.387a1.777,1.777,0,0,1-1.016.166l-.474-.11a6.427,6.427,0,0,1-2.1.552m-26.732-32.9-.677-.331a.915.915,0,0,1-.271-.827q1.422-3.863,2.843-7.755a80.778,80.778,0,0,1,3.248-7.645l.88-.221.677.166L242.78.448a1.651,1.651,0,0,1,.948-.276l.677.165a1.341,1.341,0,0,1,1.083-.331q1.015.442,1.962.772l.339.607,1.082.387a.856.856,0,0,1,.271.773h.135a4.452,4.452,0,0,1,1.151-1.38l.879-.055a1.134,1.134,0,0,1,.745.607l.068.387-3.452,5.354h.135q4.737-.607,9.543-1.049t9.678-.552l.879.5.678-.055.677.387.2.331.271.055.608-.055a13.6,13.6,0,0,1,1.692.772,1.116,1.116,0,0,1,.2.828,2.506,2.506,0,0,1,1.827.331,1.215,1.215,0,0,1,.2.883,4.352,4.352,0,0,1-.677,1.435l-.542.221H271.2q-6.5.165-12.993.442t-12.994.827l-2.842,4.471a2.576,2.576,0,0,1-1.083.331l-.406.5-.812.22-.812-.386-.2-.331h-.135l-.474.331-.609.055-.744-.387a.939.939,0,0,1-.2-.773h-.2a4.638,4.638,0,0,1-.542,1.546,1.764,1.764,0,0,1-1.014.276m12.723,19.539v-.221q.268-1.325.575-2.622t.643-2.566l-3.722-.276q-.407,1.27-.779,2.539t-.711,2.539ZM250.969,27.6v-.11l1.625-4.25h-.136l-4.805.552-.947,3.643h1.286l1.827-.055a1.916,1.916,0,0,0,1.151.22m9.406,12.2v-.387q.27-1.378.609-2.759t.745-2.7l-4.67-.442q-.405,1.381-.778,2.843t-.642,2.9Zm2.775-11.867,1.488-5.574h-1.015l-2.436.165q-.475,1.325-1.083,2.622t-1.083,2.622l4.061.22Z" transform="translate(-10.335 0)" fill="red"/>
    <path id="パス_6" data-name="パス 6" d="M293.07,39.309l-1.218-.442-.338-.442-.542-.22-.339-.773H290.5a1.577,1.577,0,0,1-1.083.276l-.541-.22-.2-.221h-.27l-.406.055-.744-.387a1.578,1.578,0,0,1-.339-.994V33.128A41.89,41.89,0,0,1,289.45,21.4a46.561,46.561,0,0,1,5.786-10.9,1.9,1.9,0,0,1,1.421-.331l.542.221v.11h.135v.11l.745.166a1.824,1.824,0,0,1,1.015-.387l.677.165.136-.165a1.307,1.307,0,0,1,1.082-.221l.609.331a1.211,1.211,0,0,1,.2.883l-.745,1.1h.271q1.69-.441,3.418-.828t3.485-.717l1.083-1.6.2-.055V9.172l.948-.22.677.276a1.047,1.047,0,0,1,.339,1.049l.2.055a1.51,1.51,0,0,1,1.151-.221l.2.055.474-.827a1.518,1.518,0,0,1,1.015-.221l.609.276a3.693,3.693,0,0,1,1.014,2.152A53.908,53.908,0,0,0,312.493,24.9q-.949,6.845-1.488,13.634a1.727,1.727,0,0,1-1.218.22l-1.015-.5-.27-.276h-.2l-.812.11v.11a1.508,1.508,0,0,1-1.151.22l-.542-.276a1.3,1.3,0,0,1-.338-.883l-.271-.055a1.5,1.5,0,0,1-1.218.276,1.129,1.129,0,0,1-.744-.608l-.068-.276h-.2l-8.527,2.207a1.214,1.214,0,0,1-.745.5Zm-.2,9.715-.542-.276-.135-.165a1.637,1.637,0,0,1-1.286-.387l-.271-.165a1.937,1.937,0,0,1-1.151.22l-1.014-.662a5.368,5.368,0,0,1-.136-1.711,9.846,9.846,0,0,1,.88-2.457,7.783,7.783,0,0,1,1.692-2.18l.744-.22.2-.276a1.786,1.786,0,0,1,1.083-.22c.542.11,1.059.24,1.557.386l.812-.165.406.055a1.758,1.758,0,0,1,.879-.11l.609.331a1.206,1.206,0,0,1,.2.883,37.171,37.171,0,0,0-1.962,3.367,20.375,20.375,0,0,0-1.421,3.532,1.933,1.933,0,0,1-1.151.221m9.948-16.172v-2.1l.068-.442h-.2l-6.9,1.877-.068,2.263h.27Zm.339-6.733.609-3.092h-.2L296.725,24.9l-.542,3.146h.136q1.69-.551,3.383-1.021t3.452-.91m1.827-7.672.744-2.207h-.135q-1.693.442-3.418.827t-3.485.718l-.813,2.318h.135q1.69-.44,3.452-.855t3.519-.8m.609,28.978-.542-.276c-.046-.22-.2-.313-.474-.276q-.949.219-1.895.5l-.744-.387a13.51,13.51,0,0,1-1.286-2.925,9.476,9.476,0,0,1-.406-3.2,1.778,1.778,0,0,1,.609-1.159l.812-.276.678-.5.473-.055.745.276.338.165a1.388,1.388,0,0,1,.948-.22l.744.387a21.281,21.281,0,0,0,2.1,3.2,21.367,21.367,0,0,1,2.1,3.2l-.406.607a1.788,1.788,0,0,1-1.083.22,3.661,3.661,0,0,1-1.015-.662l-.2.055a1.114,1.114,0,0,1-.338,1.1,1.513,1.513,0,0,1-1.151.221m14.009-5.63-1.015-.442-.677.055-.744-.5a6.362,6.362,0,0,1-.339-1.6q-.068-.828-.068-1.656l.339-2.981h-.135a22.877,22.877,0,0,1-3.181.662l-.677-.387a.937.937,0,0,1-.2-.772l.135-.442a.918.918,0,0,1-.27-.828l.338-.5.474-.165v-.165l-.609-.331a.94.94,0,0,1-.2-.773l.068-.22a1,1,0,0,1-.542-.994l.474-.607a25.24,25.24,0,0,1,3.316-.773q1.69-.275,3.384-.607.675-1.38,1.455-2.732a13.533,13.533,0,0,1,1.928-2.567L324,21.647h.677l.609.331.2.442,1.014.165a1.134,1.134,0,0,1,.813-.662l.405-.055.88.387.27.717-1.827,3.809h.2l4.805-.5.609.22v.111h.135l.27.772-.338.552-.2.055v.166l.068.386-.405.553a1.153,1.153,0,0,1-.88.22v.11l.813.387a1.034,1.034,0,0,1,.27.994,1.128,1.128,0,0,1-.744.607l-7.039,1.435a37.008,37.008,0,0,0-1.082,4.333q-.407,2.182-.88,4.388a1.726,1.726,0,0,1-1.218.22l-.677-.331a1.439,1.439,0,0,1-1.151.331m27.409,9.053-.677-.276q-1.557-2.926-2.876-5.906T340.918,38.7h-.135q-1.152,1.546-2.2,3.174a24.441,24.441,0,0,1-2.335,3.064h-.135l-.405.5a1.758,1.758,0,0,1-1.015.165l-.744-.5v-.11h-.271l-.405.055-.406-.11a1.494,1.494,0,0,1-1.218.276l-.542-.276a.912.912,0,0,1-.27-.938l.947-1.877-.068-.276.068-.22h-.2l-.677.11-.745-.387a1.2,1.2,0,0,1-.2-.883l.474-.938a.99.99,0,0,1-.339-.718,56.028,56.028,0,0,1,3.519-4.8q1.893-2.319,3.926-4.582-.881-2.649-1.659-5.326t-1.455-5.381h-.473q-3.927.442-7.75.938t-7.749,1.1l-.542-.276a1.141,1.141,0,0,1-.27-.938l.068-.165A1.313,1.313,0,0,1,316.487,19a.854.854,0,0,1-.2-.717l.405-.552.88-.276.068-.276-.2-.5-.677-.386a1.029,1.029,0,0,1-.2-.828l.609-.607q3.991-.552,7.885-1.021t7.816-.91l.068-.276q-.61-2.427-1.116-4.857a27.7,27.7,0,0,1-.576-4.968,1.164,1.164,0,0,1,.541-.772,1.862,1.862,0,0,1,1.353-.387l.677.387.542.717a6.122,6.122,0,0,1,1.218.111,1.385,1.385,0,0,1,.948-.221l.744.387q.541,2.318.948,4.664t1.015,4.664h.339l2.775-.221.609.221v.11a3.038,3.038,0,0,1,1.759.276,1.109,1.109,0,0,1,.271,1.049l-.068.165.474.276a1.041,1.041,0,0,1,.2.827l-.271.607h.745l.473-.055.745.387a1.216,1.216,0,0,1,.2.883,1.13,1.13,0,0,1-.744.607l-5.888.552v.11q.541,1.547,1.083,3.147a21.4,21.4,0,0,0,1.286,3.036,13.112,13.112,0,0,1,2.876-1.794q1.523-.689,3.147-1.242l.744.5.068.717-.338.442-.677.276v.165a.834.834,0,0,1,.405.828,1.254,1.254,0,0,1,1.083.387l.2.441a1.356,1.356,0,0,1,1.015.276.914.914,0,0,1,.27.938l-.338.442-.609.331q-1.355,1.271-2.606,2.54a19.4,19.4,0,0,0-2.2,2.649q1.353,3.092,2.808,6.126t2.606,6.182l-.609.552h-.135v.11q.405.884.812,1.794a9.447,9.447,0,0,1,.609,1.85l-.406.552a1.517,1.517,0,0,1-1.015.22l-.541-.22-.406-.718-.406-.055-.677.055-.338.552-.339.111v.11l.135.552a1.353,1.353,0,0,1-.541.662Zm.474-39.354-.609-.331-.2-.386-.474-.111-.474.166-.338.386a1.592,1.592,0,0,1-.948.166l-.609-.276-.474-.938-.744-.331a4.368,4.368,0,0,1-.406-1.518q-.068-.8-.2-1.573V4.426a12.464,12.464,0,0,0,.3-1.545,1.944,1.944,0,0,1,.846-1.325,1.518,1.518,0,0,1,1.015-.221l.27.056A5.465,5.465,0,0,1,346.2,1l.677.331q.541,1.713,1.016,3.477t1.082,3.478l-.338.552-.2.055v.22l.541,1.6-.473.608a1.758,1.758,0,0,1-1.015.165" transform="translate(-13.861 -0.224)" fill="red"/>
  </g>
</svg>
