<svg xmlns="http://www.w3.org/2000/svg" xmlns:xlink="http://www.w3.org/1999/xlink" width="267" height="47" viewBox="0 0 267 47">
  <defs>
    <clipPath id="clip-path">
      <rect id="長方形_1" data-name="長方形 1" width="267" height="47" transform="translate(0.074)" fill="none"/>
    </clipPath>
  </defs>
  <g id="グループ_1" data-name="グループ 1" transform="translate(-0.074)" clip-path="url(#clip-path)">
    <path id="パス_1" data-name="パス 1" d="M17.309,45.024a.94.94,0,0,1-.641-.61v-.509l.534-1.221a1.031,1.031,0,0,1-.8-.356l-.213-.61a41.619,41.619,0,0,0,3.124-7.429,29.206,29.206,0,0,0,1.308-7.938,13.742,13.742,0,0,0-.855-2.29,8.1,8.1,0,0,0-2.029-1.017,11.979,11.979,0,0,0-2.243-.509q-2.137,4.987-3.845,10.2T8.606,43.193a1.233,1.233,0,0,1-.855.2l-.481-.306a.937.937,0,0,1-.213-.763l.213-.967-.374-.61a1.037,1.037,0,0,1-.907-.356l-.214-.61.053-.356h-.16l-.267.1-.374,1.017a1.194,1.194,0,0,1-.907.255l-.641-.356a2.93,2.93,0,0,1-.427,1.323,1.232,1.232,0,0,1-.854.2l-.535-.356A1.253,1.253,0,0,1,1.5,40.8l.053-.356A1.059,1.059,0,0,1,.543,40.14a.859.859,0,0,1-.213-.712,82.812,82.812,0,0,1,2.643-7.912,79.693,79.693,0,0,1,3.444-7.607H6.31q-1.069.408-2.136.89a16.4,16.4,0,0,0-2.03,1.094l-.373.407-.641.1L.6,26.1a2.239,2.239,0,0,1-.481-1.425l.321-.61-.214-.1A.94.94,0,0,1,.009,23.2l.481-.661A27.462,27.462,0,0,1,4.734,20.55a43.922,43.922,0,0,1,4.459-1.374q1.122-1.78,3.257-5.241A35.619,35.619,0,0,1,16.028,8.9h.535l.587.254L17.63,9.1l.534.356.16.56.321.1.16-.255a1.063,1.063,0,0,1,.8-.2l1.388.712.213.662a61.28,61.28,0,0,0-3.845,7.429,16.061,16.061,0,0,1,4.646.992,11.348,11.348,0,0,1,4,2.569,10.053,10.053,0,0,1,1.843,2.8,10.423,10.423,0,0,1,.827,3.206v2.137a50.821,50.821,0,0,1-1.068,5.7A40.53,40.53,0,0,1,25.8,41.412a1.614,1.614,0,0,1-.961.306,1.026,1.026,0,0,1-.481.458l-.587.051-.588-.306L22.6,43.244a1.2,1.2,0,0,1-.908.255l-.32-.1-.321.458a1.1,1.1,0,0,1-.748.152l-.427-.152-.427.763-.695.2-.481-.1a1,1,0,0,1-.961.306m20.024-8.7-.587-.306q-1.336-4.732-2.643-9.54t-2.537-9.592a.956.956,0,0,1,.694-.661h.427l.588.254.587-.152.694.255a1.369,1.369,0,0,1,.748-.2l.481-.56.481-.1a1.137,1.137,0,0,1,.855.509,45.5,45.5,0,0,1,4.511,8.6,43.726,43.726,0,0,1,2.537,9.26l-.213.458a1.115,1.115,0,0,1-.8.306l-.641-.356-.161-.356-.481-.254a1.17,1.17,0,0,1-1.014.356l-.534-.254v.1l.053.509-.32.458a1.054,1.054,0,0,1-.8.2l-.427-.2-.213-.152a3.268,3.268,0,0,1-.588,1.221Z" transform="translate(0 -2.531)" fill="#fff"/>
    <path id="パス_2" data-name="パス 2" d="M82.95,45.362q-2.4-.509-4.859-1.068A12.126,12.126,0,0,1,73.6,42.259a1.271,1.271,0,0,1-.32-1.018l.053-.2-.161-.1a1.643,1.643,0,0,1-.587-1.171l.374-.56.321-.152V38.9a1.264,1.264,0,0,1-.267-1.068,1.63,1.63,0,0,1,.534-1.221q1.122-.812,2.243-1.679t2.243-1.781v-.1a2.076,2.076,0,0,1,1.228-.509l.161.051.534-.254a.813.813,0,0,1,.373-.865,1.063,1.063,0,0,1,.8-.2q1.974.661,3.925,1.221a20.869,20.869,0,0,1,3.818,1.527,16.163,16.163,0,0,0,.668-2.366,12.775,12.775,0,0,0,.24-2.519,11.786,11.786,0,0,0-.24-1.781,6.657,6.657,0,0,0-.614-1.679,4.721,4.721,0,0,0-2-.585,19.2,19.2,0,0,0-2.216-.026,28.746,28.746,0,0,0-4.325.738,23,23,0,0,0-4.112,1.45l-.427.356-.8.2a2.644,2.644,0,0,1-.641,1.425,1.213,1.213,0,0,1-.8.152l-.213-.051a2.195,2.195,0,0,1-.427,1.476.969.969,0,0,1-.748.2l-.534-.306a1.374,1.374,0,0,1-.213-1.068l.16-.763a2.869,2.869,0,0,0-.961-.254,1.1,1.1,0,0,1-.961.356l-.427-.2-.16-.2h-.213l-.481.1-.588-.306a1.475,1.475,0,0,1-.267-1.017l-.534-.306a.936.936,0,0,1-.214-.763,32.47,32.47,0,0,1,4.3-7.862q2.7-3.637,5.313-7.353h-.374q-1.229.153-2.482.28t-2.537.229H68.265a4.331,4.331,0,0,0-1.5-.254,3.665,3.665,0,0,1-1.5-.306,1.114,1.114,0,0,1-.267-.763l.374-.763.587-.2v-.1l-.053-.254.321-.56.321-.2L66.61,7.1a1,1,0,0,1-.321-.967l.267-.406a4.236,4.236,0,0,1,1.869-.2l1.548.1h4.218q1.974-.049,3.845-.28t3.791-.534l.427.152a1.946,1.946,0,0,1,1.388-.56l.427.152A1.764,1.764,0,0,1,85.459,4.3l.214.052A1.257,1.257,0,0,1,86.9,3.842l.481.306.214.662-.161.458a1.035,1.035,0,0,1,.8.356,1.263,1.263,0,0,1,.16.814A70.054,70.054,0,0,0,83,13.689a67.3,67.3,0,0,0-4.378,7.861h.267a23.938,23.938,0,0,1,3.231-.687q1.628-.229,3.284-.381h2.67a14.658,14.658,0,0,1,3.871.814,9.443,9.443,0,0,1,3.338,2.086,8.457,8.457,0,0,1,2.136,3.613,33.47,33.47,0,0,1,.908,4.071V33.2a15.313,15.313,0,0,1-1.041,4.2,21.149,21.149,0,0,1-2.055,3.892l-.695.2-.587-.2a1.487,1.487,0,0,1-.695.763l-.534.051-.427-.2-.213-.407h-.107l-1.549,1.475a3.261,3.261,0,0,1-1.388.407l-.214-.051-.855.763-.373.051-.535-.2v-.1h-.107l-.267-.458a3.6,3.6,0,0,0-1.335-.254l-.214.406-.427.2a1.631,1.631,0,0,1-.695,1.475,2.22,2.22,0,0,1-1.068.152m1.976-4.325v-.1L86.367,38.8H86.26l-.427.1q-.855-.559-1.735-1.094t-1.735-1.145a4.637,4.637,0,0,0-1.122-.864q-.588.661-1.255,1.322a7.057,7.057,0,0,0-1.095,1.374,23.677,23.677,0,0,0,2.937,1.5,21.117,21.117,0,0,0,3.1,1.043" transform="translate(-16.194 -1.089)" fill="#fff"/>
    <path id="パス_3" data-name="パス 3" d="M126.048,44.925q-2.03-.3-3.951-.738a6.815,6.815,0,0,1-3.417-1.959,7.5,7.5,0,0,1-1.6-3,12.142,12.142,0,0,1-.374-3.46,34.405,34.405,0,0,1,2.75-10.508,57.965,57.965,0,0,1,5.367-9.642,14.685,14.685,0,0,1-3.578-.738,8.4,8.4,0,0,1-3.1-1.908,6.885,6.885,0,0,1-.774-1.348,7.7,7.7,0,0,1-.454-1.45l.374-.56a2.577,2.577,0,0,0,.8-.814.874.874,0,0,1,.267-.662,2.442,2.442,0,0,1,1.175-.407,43.482,43.482,0,0,0,5.58,1.374,36.479,36.479,0,0,0,5.794.56,2.69,2.69,0,0,1,1.174-.255l.481.306a1.231,1.231,0,0,1,.213,1.017l-.32.662a.87.87,0,0,1,.213.712l-.427.61-.908.967a.863.863,0,0,1,.855,1.119.939.939,0,0,1-.641.61l-1.922.306a41.955,41.955,0,0,0-4.539,8.676,29.064,29.064,0,0,0-1.922,9.489,11.768,11.768,0,0,0,.454,2.9,5.451,5.451,0,0,0,1.521,2.443l.321.051a25.2,25.2,0,0,0,6.915-2.214,49.779,49.779,0,0,0,6.328-3.689v-.1q1.493-1.374,2.83-2.823t2.616-2.926l.641-.051a1.134,1.134,0,0,1,.641.56l.053.407a9.448,9.448,0,0,1-1.228,1.781l.535.254a1.194,1.194,0,0,1,.213.865l-.107.306.427.458v.56l-.534.814a.864.864,0,0,1,.267.763,3.67,3.67,0,0,1-.774,1.119q-.509.51-1.041,1.017l-.267.306a1.048,1.048,0,0,1,.747.306.944.944,0,0,1,.214.763l-.267.458a45.861,45.861,0,0,1-8.276,4.783,22.049,22.049,0,0,1-9.345,1.933m24.723-8.192a1.434,1.434,0,0,1-.748-.458,19.742,19.742,0,0,1-3.711-6.488,24.738,24.738,0,0,1-1.308-7.3V20.145q.106-.917.16-1.858a3.522,3.522,0,0,1,.534-1.7,2.213,2.213,0,0,1,.961-.2,2.03,2.03,0,0,1,.535-1.374,1.439,1.439,0,0,1,.854-.152l.481.356v.1l.8.1a1.043,1.043,0,0,1,.908-.356l.587.356a32.188,32.188,0,0,0,2.377,8.523,53.2,53.2,0,0,0,4.191,7.862.939.939,0,0,1-.587.56l-.481.052a4.354,4.354,0,0,1-1.709-1.018v.153l.587.61.053.509-.267.458-.748.255-.8-.306v.152a.878.878,0,0,1,.107.611,1.116,1.116,0,0,1-.587.61l-.481.051-.214-.051V34.8a.945.945,0,0,1,.214.763l-.267.458-.587.3-.321.306Zm5.18-17.656-.427-.2-.534-.713a.827.827,0,0,1-.695-.356l-.267-.458a1.44,1.44,0,0,1-.748-.458,9.015,9.015,0,0,1-1.148-2.723,11.262,11.262,0,0,1-.294-3.027,1.58,1.58,0,0,1,.427-1.12l.427-.254L153.067,9a1.251,1.251,0,0,1,.8-.254l.481.2v.1a8.647,8.647,0,0,1,1.6.763l.107.255h.107l.267-.052.587.306a11.247,11.247,0,0,0,1.415,3.307,23.367,23.367,0,0,1,1.682,3.206l-.321.509-.587.2-.267.509a1.053,1.053,0,0,1-.8.2l-.213-.052-.213.306q-.856.306-1.762.56m6.3-2.442a1.493,1.493,0,0,1-1.121-.509,17.693,17.693,0,0,1-1.843-3.41,13.91,13.91,0,0,1-.934-3.765l.321-.458.694-.2.16.051.374-.662a4.767,4.767,0,0,1,1.442-.2l.587.509a10.03,10.03,0,0,0,1.255,1.629q.721.763,1.362,1.577h.107q.641.815,1.361,1.578A4.079,4.079,0,0,1,167,14.5l-.214.458a1.113,1.113,0,0,1-.8.306l-.695-.306-.32.814a3.672,3.672,0,0,1-1.6.356l-.587.509Z" transform="translate(-29.071 -2.126)" fill="#fff"/>
    <path id="パス_4" data-name="パス 4" d="M195.52,52.183a.468.468,0,0,1-.294-.28l-.027-.229a24.576,24.576,0,0,0,2-2.862,8.884,8.884,0,0,0,1.174-3.218V44.576a5.173,5.173,0,0,0-.44-1.527,4.581,4.581,0,0,0-.921-1.3,5.035,5.035,0,0,0-2.1-1.17,7.382,7.382,0,0,0-2.443-.255,14.788,14.788,0,0,0-2.43.407,11.87,11.87,0,0,0-2.3.839,12.655,12.655,0,0,0-1.775,2.7,6.665,6.665,0,0,0-.681,3.078,3.393,3.393,0,0,0,.321,1.043h.053A19.545,19.545,0,0,0,187.5,47.26q.894-.623,1.723-1.31V45.9l.694-.662h.053q.614-.687,1.189-1.412a13.8,13.8,0,0,0,1.028-1.488.708.708,0,0,1,.347-.152l.4-.687a6.015,6.015,0,0,1,.748-.2l.32.152a.532.532,0,0,1,.107.458l-.027.178.321.356.026.229-.24.789.347.331.294.152.107.356a20.561,20.561,0,0,1-1.455,2.532q-.815,1.209-1.668,2.328a24.42,24.42,0,0,1-3.191,1.9,7.578,7.578,0,0,1-3.618.776.632.632,0,0,1-.374-.178l-.026-.076a4.109,4.109,0,0,1-1.922-.458,8.648,8.648,0,0,1-1.629-1.094,2.515,2.515,0,0,1-.574-1.081,4.044,4.044,0,0,1-.093-1.285,6.924,6.924,0,0,1,.855-2.468,19.1,19.1,0,0,1,1.5-2.239q.854-.737,1.735-1.438a9.893,9.893,0,0,1,1.9-1.183,23.96,23.96,0,0,1,4.472-1.654,17.927,17.927,0,0,1,4.739-.585,11.4,11.4,0,0,1,2.923.484A7.009,7.009,0,0,1,201.074,40v.051l.107.051.026.077h.054a5.864,5.864,0,0,1,1.255,2.035,6.191,6.191,0,0,1,.347,2.366,14.5,14.5,0,0,1-.187,1.539,5.783,5.783,0,0,1-.454,1.438.6.6,0,0,1-.48.1l-.08-.025q-.241.713-.547,1.4a8.863,8.863,0,0,1-.734,1.323.557.557,0,0,1-.427.127l-.24-.077a2.546,2.546,0,0,0-.534.433l-.294.025-.08-.025a2.515,2.515,0,0,1-.587.687l-.24.025-.08-.025-.32.331a1.529,1.529,0,0,1-.614.127.565.565,0,0,1-.321-.28l-.026-.229.053-.177h-.027a4.028,4.028,0,0,1-.827.89Z" transform="translate(-44.932 -10.835)" fill="#fff"/>
    <path id="パス_5" data-name="パス 5" d="M226.5,17.154a36.691,36.691,0,0,0-5.767-1.068,35.23,35.23,0,0,1-5.714-1.069,3.519,3.519,0,0,1-.267-.967.964.964,0,0,1-.427-.916l.267-.458.321-.152v-.1a1.047,1.047,0,0,1-.748-.306,1.091,1.091,0,0,1-.213-.814.942.942,0,0,1,.641-.61h1.122q3.149.356,6.3.661a53.566,53.566,0,0,1,6.194.967.987.987,0,0,1,.16.712l-.321.458q-.534.152-.373.814a.866.866,0,0,1,.373.916,2.617,2.617,0,0,1-.641,1.73,1.053,1.053,0,0,1-.908.2M216.137,42.289l-.373-.2-.427-.865a1.25,1.25,0,0,1-1.068-.407.97.97,0,0,1-.161-.713.942.942,0,0,1,.641-.61v-.1a1.174,1.174,0,0,1-.214-.865l.587-.61a.994.994,0,0,1,.267-.814,2.385,2.385,0,0,1,.855-.356.958.958,0,0,1,.534-.509q2.829-.559,5.607-1.221l5.553-1.323.587.356a2.452,2.452,0,0,1,.748.713l.053.458-.321.509-.32.306.053.3-.374.56c-.143.034-.2.137-.16.306l.747.458.214.662-.267.509q-3.2.815-6.381,1.679t-6.381,1.781m35.616,5.19-.481-.306a1.092,1.092,0,0,1-.214-.814l.054-.152H250.9l-.534.051-.481-.306a1.469,1.469,0,0,1-.213-1.119l.16-2.188q-2.031-.407-4.059-.865t-4-.967a.817.817,0,0,1-.321.763,1.055,1.055,0,0,1-.8.2l-.481-.306a.933.933,0,0,1-.214-.763l.053-.407a5.73,5.73,0,0,1-1.869-.61l-.213-.306-1.869-.356-.641.152-.267-.051a1.514,1.514,0,0,1-.32.967,1.054,1.054,0,0,1-.908.2l-.748-.662v-.1h-.16l-.587.1-.481-.254-.213-.407h-.107a.971.971,0,0,1-.908.356l-.534-.306a1.451,1.451,0,0,1-.214-.967q.267-1.933.561-3.867t.721-3.867h-.481l-.694.1-.535-.254a1.115,1.115,0,0,1-.267-.763h-.427a1.426,1.426,0,0,1-.855.152.936.936,0,0,1-.587-.56l-.053-.306.321-.61q.48-.253.961-.458l.053-.152-.641-.2a1.734,1.734,0,0,1-.854.1l-.854-.153-.587.509h-.641q-2.4-.406-4.832-1.017a43.121,43.121,0,0,1-4.726-1.475,2.061,2.061,0,0,1-.32-1.12l.32-.458.161-.051v-.254l-.214-.56a1.1,1.1,0,0,1-.961-.356,1.069,1.069,0,0,1-.16-.763.939.939,0,0,1,.641-.61h.587q2.829.356,5.607.941t5.5,1.2a1.107,1.107,0,0,1,.213.814l-.107.356a.943.943,0,0,1,.587.56V25.4l-.053.255a3.451,3.451,0,0,1,1.014.254l.587-.152h3.311l.161-.051q.532-1.933,1.094-3.867a18.922,18.922,0,0,1,1.522-3.714l.641-.2.427.1a11.266,11.266,0,0,1,.855-2.137,4.41,4.41,0,0,0,1.308-.636,2.048,2.048,0,0,1,1.469-.331l.481.306a.285.285,0,0,0,.374.254l.32-.051.587.356a1.774,1.774,0,0,1,.214,1.068h.321q3.309-.2,6.594-.381t6.594-.331a6.284,6.284,0,0,1,.534-1.629,1.342,1.342,0,0,1,.908-.2l.587.509v.2a1.111,1.111,0,0,1,.908.306l.107.255.588.356.16.458h.107l.641-.2.587.306a.944.944,0,0,1,.213.763l-.16.763h.107l.481-.051.641.356.587-.153.587.356a1.081,1.081,0,0,1,.16.763,3.189,3.189,0,0,0-.373.967l.053.509a26.875,26.875,0,0,0-1.122,2.952q-.48,1.526-.908,3,.908.1,1.816.127a3.641,3.641,0,0,1,1.656.432,1.084,1.084,0,0,1,.16.763l-.16.407.747.712.053.662-.107.356.695.254a1.075,1.075,0,0,1,.267.865l-.321.458-.641.2-.587-.1v.1l.053.56-.213.356a.958.958,0,0,1-.8.254l-4.059-.712q-.32,1.323-.587,2.645t-.427,2.7a12.8,12.8,0,0,1,2.564.56l.267.56a.832.832,0,0,1,.695.356,3.279,3.279,0,0,1,.213,1.17l-.053.306a.85.85,0,0,1-.321,1.475h-.16v.1l.213.611-.373.61a1.223,1.223,0,0,1-.8.152l-1.655-.356-.427.458-.534.1-.854-.1a1.727,1.727,0,0,1-.267.967l-.213.152a5.616,5.616,0,0,1-.427,2.188.976.976,0,0,1-.748.2l-.694-.356a1.227,1.227,0,0,1-.8.153l-.374-.1a4.506,4.506,0,0,1-1.655.509M230.661,17.154l-.534-.306a.933.933,0,0,1-.214-.763q1.122-3.561,2.243-7.149t2.563-7.047l.695-.2.534.153.747-1.425a1.172,1.172,0,0,1,.748-.254l.534.152a.962.962,0,0,1,.855-.3q.8.408,1.548.712l.267.56.854.356a.87.87,0,0,1,.214.713h.107a4.028,4.028,0,0,1,.908-1.272l.694-.051a.942.942,0,0,1,.588.56l.053.356L241.34,6.876h.107q3.737-.559,7.529-.967t7.636-.509l.694.458.535-.051.534.356.16.306.214.051.48-.051a10.06,10.06,0,0,1,1.335.712,1.165,1.165,0,0,1,.161.763,1.744,1.744,0,0,1,1.442.306,1.27,1.27,0,0,1,.16.814,4.343,4.343,0,0,1-.534,1.323l-.427.2h-2.243Q254,10.742,248.87,11t-10.253.763l-2.242,4.121a1.829,1.829,0,0,1-.854.306l-.321.458-.641.2-.641-.356-.161-.306h-.107l-.374.306-.481.051-.587-.356a.974.974,0,0,1-.16-.713h-.161a4.77,4.77,0,0,1-.427,1.425,1.246,1.246,0,0,1-.8.254M240.7,35.166v-.2q.212-1.221.454-2.417t.508-2.366l-2.937-.255q-.321,1.171-.614,2.341t-.561,2.341Zm2.456-9.719v-.1l1.282-3.918h-.107l-3.791.509-.747,3.358h1.014l1.442-.051a1.331,1.331,0,0,0,.908.2m7.422,11.245v-.356q.213-1.271.481-2.544t.588-2.494l-3.685-.407q-.32,1.273-.614,2.621t-.507,2.671Zm2.19-10.94,1.174-5.139h-.8l-1.922.152q-.375,1.221-.854,2.417T249.51,25.6l3.2.2Z" transform="translate(-53.294 0)" fill="red"/>
    <path id="パス_6" data-name="パス 6" d="M291.771,36.316l-.961-.407-.267-.407-.427-.2-.267-.713h-.107a1.112,1.112,0,0,1-.854.255l-.427-.2-.16-.2h-.213l-.321.051-.587-.356a1.618,1.618,0,0,1-.267-.916V30.618a44.256,44.256,0,0,1,2-10.812,45.759,45.759,0,0,1,4.565-10.05A1.336,1.336,0,0,1,294.6,9.45l.427.2v.1h.107v.1l.588.153a1.327,1.327,0,0,1,.8-.356l.534.152.107-.152a.917.917,0,0,1,.854-.2l.481.306a1.266,1.266,0,0,1,.161.814l-.588,1.017h.214q1.334-.407,2.7-.763t2.75-.661l.855-1.475.16-.051v-.1l.748-.2.534.254a1.067,1.067,0,0,1,.267.967l.16.051a1.054,1.054,0,0,1,.908-.2l.16.051.374-.763a1.062,1.062,0,0,1,.8-.2l.481.255a3.673,3.673,0,0,1,.8,1.984A56.391,56.391,0,0,0,307.1,23.036q-.749,6.31-1.174,12.568a1.2,1.2,0,0,1-.961.2l-.8-.458-.213-.254h-.161l-.64.1v.1a1.053,1.053,0,0,1-.908.2l-.427-.254a1.316,1.316,0,0,1-.267-.814l-.214-.051a1.054,1.054,0,0,1-.961.255.938.938,0,0,1-.587-.56l-.053-.254h-.16l-6.728,2.035a.965.965,0,0,1-.588.458Zm-.16,8.956-.427-.255-.107-.152a1.173,1.173,0,0,1-1.014-.356l-.214-.152a1.346,1.346,0,0,1-.908.2l-.8-.61a5.757,5.757,0,0,1-.107-1.577,10.117,10.117,0,0,1,.695-2.265,7.15,7.15,0,0,1,1.335-2.01l.587-.2.16-.255a1.243,1.243,0,0,1,.854-.2c.427.1.836.221,1.229.356l.64-.152.321.051a1.2,1.2,0,0,1,.694-.1l.481.306a1.26,1.26,0,0,1,.16.814q-.855,1.527-1.548,3.1a20.721,20.721,0,0,0-1.121,3.256,1.343,1.343,0,0,1-.908.2m7.849-14.909V28.43l.053-.407h-.16l-5.446,1.73-.053,2.086h.213Zm.267-6.207.481-2.85h-.16l-5.394,1.73-.427,2.9h.107Q295.668,25.428,297,25t2.724-.839m1.442-7.073.587-2.035h-.107q-1.336.408-2.7.763t-2.75.662l-.641,2.137h.107q1.334-.406,2.723-.789t2.777-.738M301.65,43.8l-.427-.255a.285.285,0,0,0-.374-.254q-.749.2-1.495.458l-.587-.356a13.606,13.606,0,0,1-1.014-2.7,10.123,10.123,0,0,1-.321-2.952,1.742,1.742,0,0,1,.481-1.068l.641-.255.535-.458.373-.051.588.255.267.152a.974.974,0,0,1,.748-.2l.587.356A20.209,20.209,0,0,0,303.3,39.42a20.293,20.293,0,0,1,1.656,2.952l-.321.56a1.244,1.244,0,0,1-.855.2,2.893,2.893,0,0,1-.8-.61l-.161.051a1.138,1.138,0,0,1-.267,1.017,1.056,1.056,0,0,1-.908.2m11.053-5.19-.8-.407-.534.051-.587-.458a6.728,6.728,0,0,1-.267-1.475q-.054-.763-.053-1.526l.267-2.748h-.107a15.807,15.807,0,0,1-2.51.61l-.534-.356a.972.972,0,0,1-.16-.712l.107-.407a.936.936,0,0,1-.213-.763l.267-.458.374-.152v-.152l-.481-.306a.974.974,0,0,1-.16-.713l.053-.2a.965.965,0,0,1-.427-.916l.374-.56a17.535,17.535,0,0,1,2.616-.713q1.334-.253,2.67-.56.533-1.272,1.148-2.519a12.513,12.513,0,0,1,1.521-2.366l.908-.763h.534l.481.3.161.407.8.152a.943.943,0,0,1,.641-.61l.32-.051.695.356.213.661-1.442,3.511h.161l3.791-.458.481.2v.1h.107l.213.712-.267.509-.161.051v.153l.053.356-.32.509a.815.815,0,0,1-.695.2v.1l.641.356a1.066,1.066,0,0,1,.213.916.937.937,0,0,1-.587.56l-5.554,1.323a38.923,38.923,0,0,0-.854,3.994q-.321,2.011-.695,4.046a1.2,1.2,0,0,1-.961.2l-.534-.3a1.029,1.029,0,0,1-.908.3m21.626,8.345-.534-.255q-1.229-2.7-2.269-5.444t-2-5.5h-.107q-.909,1.425-1.735,2.926a22.533,22.533,0,0,1-1.843,2.824h-.107l-.32.458a1.214,1.214,0,0,1-.8.152l-.587-.458v-.1h-.214l-.32.051-.321-.1a1.052,1.052,0,0,1-.961.254l-.427-.254a.934.934,0,0,1-.213-.865l.747-1.73-.053-.255.053-.2h-.16l-.534.1-.588-.356a1.251,1.251,0,0,1-.16-.814l.374-.865a.983.983,0,0,1-.267-.662,52.081,52.081,0,0,1,2.777-4.426q1.493-2.138,3.1-4.224-.695-2.442-1.309-4.91T324.4,17.337h-.373q-3.1.408-6.114.865t-6.114,1.017l-.427-.255a1.177,1.177,0,0,1-.213-.865l.053-.152a.949.949,0,0,1-.961-.356.882.882,0,0,1-.16-.661l.32-.509.695-.255.053-.255-.161-.458-.534-.356a1.069,1.069,0,0,1-.16-.763l.481-.56q3.149-.509,6.221-.942t6.167-.839l.053-.255q-.481-2.238-.881-4.477a29.659,29.659,0,0,1-.454-4.58,1.089,1.089,0,0,1,.427-.712,1.325,1.325,0,0,1,1.068-.356l.534.356.427.661a4.157,4.157,0,0,1,.961.1.972.972,0,0,1,.748-.2l.587.356q.427,2.137.748,4.3t.8,4.3h.267l2.19-.2.481.2v.1a2.1,2.1,0,0,1,1.388.255,1.146,1.146,0,0,1,.214.967l-.053.152.374.255a1.083,1.083,0,0,1,.16.763l-.214.56h.588l.373-.051.588.356a1.272,1.272,0,0,1,.16.814.939.939,0,0,1-.587.56l-4.646.509v.1q.427,1.426.854,2.9a21.655,21.655,0,0,0,1.014,2.8,10.251,10.251,0,0,1,2.269-1.654,25.36,25.36,0,0,1,2.483-1.145l.587.458.053.661-.267.407-.534.255v.152a.818.818,0,0,1,.32.763.913.913,0,0,1,.855.356l.16.406a.962.962,0,0,1,.8.255.937.937,0,0,1,.213.865l-.267.407-.481.3q-1.069,1.172-2.056,2.341a17.571,17.571,0,0,0-1.735,2.442q1.068,2.851,2.216,5.648t2.056,5.7l-.481.509h-.107v.1q.32.815.641,1.654a9.773,9.773,0,0,1,.481,1.705l-.321.509a1.061,1.061,0,0,1-.8.2l-.427-.2-.321-.662-.321-.051-.534.051-.267.509-.267.1v.1l.107.509a1.229,1.229,0,0,1-.426.61Zm.374-36.28-.481-.306-.16-.356-.374-.1-.374.153-.267.356a1.1,1.1,0,0,1-.748.153l-.481-.255-.374-.865-.587-.3a4.57,4.57,0,0,1-.321-1.4q-.054-.737-.16-1.45V4.159a13.229,13.229,0,0,0,.24-1.425,1.848,1.848,0,0,1,.668-1.221,1.062,1.062,0,0,1,.8-.2l.213.052A3.793,3.793,0,0,1,333.688,1l.534.3q.427,1.579.8,3.206t.854,3.206l-.267.509-.16.051v.2l.426,1.475-.373.56a1.214,1.214,0,0,1-.8.152" transform="translate(-71.473 -0.285)" fill="red"/>
  </g>
</svg>
